<svg width="20" height="35" viewBox="0 0 20 35" fill="none" xmlns="http://www.w3.org/2000/svg">
<path d="M6.90243 24.5909V24.3949C6.92421 22.3149 7.14202 20.6596 7.55584 19.429C7.96967 18.1984 8.55774 17.2019 9.32005 16.4396C10.0824 15.6773 10.9971 14.9749 12.0644 14.3324C12.7069 13.9403 13.2841 13.4775 13.7959 12.9439C14.3077 12.3994 14.7107 11.7732 15.0047 11.0653C15.3096 10.3575 15.4621 9.57339 15.4621 8.71307C15.4621 7.64583 15.2116 6.72017 14.7107 5.93608C14.2097 5.15199 13.54 4.54758 12.7014 4.12287C11.8629 3.69815 10.9318 3.48579 9.90811 3.48579C9.01512 3.48579 8.1548 3.67093 7.32715 4.04119C6.4995 4.41146 5.80797 4.99408 5.25258 5.78906C4.69718 6.58404 4.37592 7.62405 4.2888 8.90909H0.172319C0.25944 7.05776 0.738607 5.47325 1.60982 4.15554C2.49192 2.83783 3.65172 1.83049 5.08922 1.13352C6.53761 0.436551 8.14391 0.0880669 9.90811 0.0880669C11.8248 0.0880669 13.491 0.469222 14.9067 1.23153C16.3333 1.99384 17.4332 3.0393 18.2064 4.3679C18.9905 5.69649 19.3825 7.21023 19.3825 8.90909C19.3825 10.107 19.1974 11.1906 18.8271 12.1598C18.4678 13.129 17.945 13.9948 17.259 14.7571C16.5838 15.5194 15.767 16.1946 14.8087 16.7827C13.8503 17.3816 13.0826 18.0133 12.5054 18.6776C11.9282 19.331 11.509 20.1096 11.2476 21.0135C10.9862 21.9174 10.8447 23.0445 10.8229 24.3949V24.5909H6.90243ZM8.99334 34.2614C8.18747 34.2614 7.49595 33.9728 6.91877 33.3956C6.34159 32.8184 6.053 32.1269 6.053 31.321C6.053 30.5152 6.34159 29.8236 6.91877 29.2464C7.49595 28.6693 8.18747 28.3807 8.99334 28.3807C9.79921 28.3807 10.4907 28.6693 11.0679 29.2464C11.6451 29.8236 11.9337 30.5152 11.9337 31.321C11.9337 31.8546 11.7976 32.3447 11.5253 32.7912C11.2639 33.2377 10.91 33.5971 10.4635 33.8693C10.0279 34.1307 9.53785 34.2614 8.99334 34.2614Z" fill="white"/>
</svg>
