<svg xmlns="http://www.w3.org/2000/svg" width="142" height="163" viewBox="0 0 142 163">
  <defs>
    <style>
      .cls-1 {
        fill: #fff;
        stroke: #fff;
        stroke-width: 2px;
        fill-rule: evenodd;
      }
    </style>
  </defs>
  <path id="производство" class="cls-1" d="M185,140.463m22.039,6.058-6.666-66.443a9.79,9.79,0,0,0-6.77-2.347c-4.481,0-6.565,2.347-6.565,2.347l-6.664,66.443h26.665Zm-11.668-72.59h-3.331a8.316,8.316,0,0,0-8.326-8.305H183.7A11.658,11.658,0,0,1,172.036,54h3.334a8.326,8.326,0,0,0,8.333,8.3h0.006A11.641,11.641,0,0,1,195.366,73.931Zm-22.409,72.59-4.663-46.511a6.842,6.842,0,0,0-4.741-1.642,6.273,6.273,0,0,0-4.6,1.642L154.3,146.521h18.661Zm-7.666-50.814h-3.329a5.324,5.324,0,0,0-5.327-5.313h-0.006a8.666,8.666,0,0,1-8.671-8.638h3.332a5.334,5.334,0,0,0,5.339,5.318h0.006A8.644,8.644,0,0,1,165.291,95.707Zm46.371,54.766-63.331-.042v-9.968a3.329,3.329,0,0,0-4.569-3.081L115,148.847v-8.384a3.328,3.328,0,0,0-4.569-3.081L77.1,150.667a3.319,3.319,0,0,0-2.1,3.085v57.926A3.326,3.326,0,0,0,78.335,215H211.66a3.325,3.325,0,0,0,3.334-3.321V153.8A3.324,3.324,0,0,0,211.662,150.473Zm-93.329,29.412A3.33,3.33,0,0,1,115,183.21H95a3.327,3.327,0,0,1-3.332-3.325v-9.964A3.32,3.32,0,0,1,95,166.6h20a3.322,3.322,0,0,1,3.332,3.317v9.964Zm40,0A3.33,3.33,0,0,1,155,183.21H135a3.328,3.328,0,0,1-3.334-3.325v-9.964A3.321,3.321,0,0,1,135,166.6h20a3.322,3.322,0,0,1,3.332,3.317v9.964Zm40,0A3.33,3.33,0,0,1,195,183.21H175a3.326,3.326,0,0,1-3.332-3.325v-9.964A3.318,3.318,0,0,1,175,166.6h20a3.323,3.323,0,0,1,3.332,3.317v9.964Z" transform="translate(-74 -53)"/>
</svg>
