<svg xmlns="http://www.w3.org/2000/svg" width="132.063" height="132.031" viewBox="0 0 132.063 132.031">
  <defs>
    <style>
      .cls-1 {
        fill: #fff;
        fill-rule: evenodd;
      }
    </style>
  </defs>
  <path id="продукция" class="cls-1" d="M165.825,127.92l33.1,19.622s16-6.835,11.181-34.615l-48.668,6.835a26.51,26.51,0,0,0-5.262-4.63l35.953-10.583s6.139-16.315-17.318-31.968l-27.842,39.024a16.458,16.458,0,0,0-3.288-.221,26.78,26.78,0,0,0-4.166.441l19.073-31.086s-6.358-16.095-34.2-12.126l5.261,47.4a22.957,22.957,0,0,0-5.042,5.292l-7.892-34.174s-15.784-7.055-32.665,15.654l36.83,29.323c0,0.661-.219,1.543-0.219,2.2a33.094,33.094,0,0,0,.438,4.63l-28.937-18.96s-16.223,5.953-12.715,34.173l47.133-4.409a20.886,20.886,0,0,0,4.165,3.527L98.3,161.432s-6.577,16.094,16.223,32.63l28.06-36.819h1.1a21.506,21.506,0,0,0,5.261-.662l-18.2,31.308s6.8,16.094,34.419,11.244l-4.6-49.386a28.029,28.029,0,0,0,3.946-5.953l9.207,37.26s16,6.835,32.446-16.095L166.7,134.093A20.011,20.011,0,0,0,165.825,127.92Zm-12.715,6.393a9.427,9.427,0,1,1-9.426-9.48A9.524,9.524,0,0,1,153.11,134.313Z" transform="translate(-78.938 -68)"/>
</svg>
