<svg xmlns="http://www.w3.org/2000/svg" width="137" height="136.969" viewBox="0 0 137 136.969">
  <defs>
    <style>
      .cls-1 {
        fill: #0244a5;
        fill-rule: evenodd;
      }
    </style>
  </defs>
  <path id="услуги" class="cls-1" d="M128.775,134.723a21.792,21.792,0,0,0,2.157,21.867,22.252,22.252,0,0,0,20.558,9.036l-10.984-15.19a5.816,5.816,0,0,1,1.358-8.135l7.989-5.668a5.932,5.932,0,0,1,8.2,1.344l10.98,15.195a21.813,21.813,0,0,0-2.017-22.2,22.293,22.293,0,0,0-25.179-8,12.051,12.051,0,0,0-.946-1.053L92,71.247a7.919,7.919,0,0,0-11.1,0l-3.663,3.631a7.757,7.757,0,0,0,0,11l51.121,48.472C128.49,134.488,128.635,134.6,128.775,134.723ZM90.792,84.686a4.972,4.972,0,0,1-6.993,0,4.87,4.87,0,0,1,0-6.932,4.972,4.972,0,0,1,6.991,0A4.87,4.87,0,0,1,90.792,84.686Zm121.186,64.583V130.985l-13-1.552a53.447,53.447,0,0,0-8.027-19.195l8.085-10.214L186,87.095l-10.3,8.019a54.477,54.477,0,0,0-19.366-7.957L154.762,74.27H136.314l-1.568,12.887A54.416,54.416,0,0,0,121.37,91.7L134.1,105.575a36.952,36.952,0,0,1,11.446-1.828,36.378,36.378,0,1,1-36.7,36.377,35.925,35.925,0,0,1,2.143-12.148L96.344,116.84A53.355,53.355,0,0,0,92.1,129.431l-13,1.552v18.284l13,1.554a53.376,53.376,0,0,0,8.032,19.194L92.04,180.23l13.042,12.926,10.305-8.015a54.436,54.436,0,0,0,19.361,7.957l1.566,12.885h18.448l1.565-12.885a54.452,54.452,0,0,0,19.366-7.957l10.3,8.015,13.042-12.926-8.085-10.215a53.546,53.546,0,0,0,8.027-19.194Z" transform="translate(-74.969 -69)"/>
</svg>
